<svg id="yos-logo" xmlns="http://www.w3.org/2000/svg" viewBox="0 0 880 880"><title>yosicon-bk_working</title><path d="M309.65,459c-7.81-19.86-38.69-71.77-66.32-40.74S226,485.5,226,485.5s-66-25.3-67.62,11.16,57,65.83,57,65.83,113.83,57.93,118.39,45.82C341,589.1,323.32,493.69,309.65,459Zm175.1,364c7-.73,13.28-1.6,20.17-2.78l2.28-.94c-10-23.07-23.55-56.9-31.64-77.08v-.37c.43-5.29.51-10.95,1-16.89,3.33-37.63,7.81-27.91,19.31-68.51,10.78-38.13,11.79-42.41,17.57-66,1.52-6.16,3.33-13.63,5.71-23.34a236.39,236.39,0,0,1,14.9-43.57c5.35-12.18,9.91-22.76,12.29-42.77,3-25.37,2.82-36.25,2.39-54.23-.14-7.68-.36-16.38-.36-28.27,0-35.16-1.45-31.09-7.52-76.47-.94-7.1-2-15.15-3.18-24.21-.51-3.84-1-7.54-1.45-11-7.45-57,1.15-81.34-15.87-113.11-4.07-7.6.11.51-2.57-3.62,20.68-8.36,34.33-2.19,60.14-2.95,29-.85,82.77-25.11,166.38,99.9,11.59,17.33,24.31,60.52,76.73,135.58a12.05,12.05,0,0,0,0-3.52c-7.25-65.9-42.83-209.22-206.42-301.49C547,59.15,500.88,55,439.82,55,313.7,55,199.31,115.17,129.27,209.27l3,2.06,58.23,47c2.75,1.67,60.6,38.21,131.84,52.92,38.47,7.9,38.91,28.13,39.56,58.72.36,16.09.72,34.44,8.1,51.4,4.77,11.09,6.15,23.92,8.1,43.28,5.13,50.17,8.21,130.16,100.34,343.09l5.86,15Zm-15.53-84.6M851.5,440c0,227.27-184.23,411.5-411.5,411.5S28.5,667.27,28.5,440,212.73,28.5,440,28.5,851.5,212.73,851.5,440ZM440,0C197,0,0,197,0,440S197,880,440,880,880,683,880,440,683,0,440,0Z"/></svg>
